# xmcd
#
# Track frame offsets:
#	150
#	11672
#	22609
#	35869
#	51346
#	69551
#	84445
#	102740
#	116636
#	128929
#	140890
#	150517
#	167986
#	185159
#	199284
#
# Disc length: 2872 seconds
#
# Revision: 1
# Processed by: cddbd v1.5.2PL0 Copyright (c) Steve Scherf et al.
# Submitted via: audiograbber 1.83.01
#
DISCID=de0b360f
DTITLE=American Profile - Country Gospel Favorites 2 - Disc 2
DYEAR=2009
DGENRE=Gospel
TTITLE0=Patsy Cline - Dear God (I Go To Church On Sunday)
TTITLE1=The Jordanaires - Power InThe Blood
TTITLE2=Ray Price - What A Friend We Have In Jesus
TTITLE3=Slim Whitman and Byron Whitman - Suppertime
TTITLE4=Craig Duncan - Wayfaring Stranger
TTITLE5=Roy Clark - Safely In The Arms Of Jesus
TTITLE6=Brenda Lee - Just A Closer Walk With Thee
TTITLE7=Deborah Allen - He's Got The Whole World In His Hands
TTITLE8=Bill Anderson - I Saw The Light
TTITLE9=Ray Price - Peace In The Valley
TTITLE10=The Jordanaires - Joshua
TTITLE11=Baille and The Boys - Both Sides Now
TTITLE12=Roy Acliff - Will The Circle Be Unbroken
TTITLE13=Eddie Raven - Leaning On The Everlasting Arms
TTITLE14=Pat Boone - Nearer My God To Thee
EXTD=
EXTT0=
EXTT1=
EXTT2=
EXTT3=
EXTT4=
EXTT5=
EXTT6=
EXTT7=
EXTT8=
EXTT9=
EXTT10=
EXTT11=
EXTT12=
EXTT13=
EXTT14=
PLAYORDER=
